# Obj file C:\Users\Kyle\Desktop\ORGANIZE 4\VR WIDGETS\VR SLIDERS\dot 1.obj \
#    generated by Autodesk OpenModel V2013 
# Mon Oct 27 12:30:02 2014
# The units used in this file are Centimeters 
# fromNurbs
# usemtl UNKNOWN
g Obj_fromNurbs
v -4.048169 -0.9947576 0.1
v -4.204324 -0.9947576 0.1
v -4.126246 -0.9166802 0.1
v -4.126246 -1.072835 0.1
v -4.088072 -0.9266297 0.1
v -4.088072 -1.062886 0.1
v -4.20429 -0.9924573 0.1
v -4.088073 -0.9924573 0.1
v -4.17736 -1.053782 0.1
v -4.177359 -0.9924573 0.1
v -4.17736 -0.9357331 0.1
g
vn 0 0 1
vn 0 0 1
vn 0 0 1
vn 0 0 1
vn 0 0 1
vn 0 0 1
vn 0 0 1
vn 0 0 1
vn 0 0 1
vn 0 0 1
vn 0 0 1
vt 0.09327613 0.5265557
vt 0.07766064 0.5265557
vt 0.08546838 0.5343634
vt 0.08546838 0.5187479
vt 0.08928572 0.5333682
vt 0.08928572 0.5197431
vt 0.07766397 0.5267857
vt 0.08928572 0.5267857
vt 0.08035714 0.5206533
vt 0.08035714 0.5267857
vt 0.08035714 0.5324581
s 1
f 1/1/1 5/5/5 8/8/8
f 11/11/11 10/10/10 8/8/8
f 4/4/4 6/6/6 8/8/8
f 2/2/2 9/9/9 10/10/10
f 11/11/11 7/7/7 10/10/10
f 8/8/8 6/6/6 1/1/1
f 8/8/8 5/5/5 3/3/3
f 3/3/3 11/11/11 8/8/8
f 8/8/8 10/10/10 9/9/9
f 8/8/8 9/9/9 4/4/4
f 10/10/10 7/7/7 2/2/2
s off
# End of Obj file C:\Users\Kyle\Desktop\ORGANIZE 4\VR WIDGETS\VR SLIDERS\dot \
#    1.obj
