# Obj file C:\Users\Kyle\Desktop\ORGANIZE 4\VR WIDGETS\VR SLIDERS\slider-line \
#    cap left.obj generated by Autodesk OpenModel V2013 
# Mon Oct 27 12:28:23 2014
# The units used in this file are Centimeters 
# fromNurbs
# usemtl UNKNOWN
g Obj_fromNurbs
v -4.126247 0.3415489 0.1
v -4.126247 0.1129366 0.1
v -4.240547 0.227252 0.1
v -4.21423 0.1542766 0.1
v -4.126247 0.154278 0.1
v -4.170061 0.3328494 0.1
v -4.126247 0.3328494 0.1
v -4.239388 0.2435631 0.1
v -4.126247 0.2435637 0.1
v -4.176931 0.154278 0.1
v -4.176931 0.2435637 0.1
v -4.176933 0.3297263 0.1
g
vn 0 0 1
vn 0 0 1
vn 0 0 1
vn 0 0 1
vn 0 0 1
vn 0 0 1
vn 0 0 1
vn 0 0 1
vn 0 0 1
vn 0 0 1
vn 0 0 1
vn 0 0 1
vt 0.08542556 0.5901557
vt 0.08542556 0.5672944
vt 0.07399559 0.578726
vt 0.07662753 0.5714286
vt 0.08542556 0.5714286
vt 0.08104423 0.5892857
vt 0.08542556 0.5892857
vt 0.07411113 0.5803571
vt 0.08542556 0.5803571
vt 0.08035714 0.5714286
vt 0.08035714 0.5803571
vt 0.08035714 0.5889732
s 1
f 1/1/1 6/6/6 7/7/7
f 2/2/2 5/5/5 10/10/10
f 11/11/11 9/9/9 7/7/7
f 10/10/10 5/5/5 9/9/9
f 4/4/4 10/10/10 11/11/11
f 12/12/12 8/8/8 11/11/11
f 10/10/10 4/4/4 2/2/2
f 6/6/6 12/12/12 11/11/11
f 11/11/11 7/7/7 6/6/6
f 9/9/9 11/11/11 10/10/10
f 11/11/11 8/8/8 3/3/3
f 3/3/3 4/4/4 11/11/11
s off
# End of Obj file C:\Users\Kyle\Desktop\ORGANIZE 4\VR WIDGETS\VR \
#    SLIDERS\slider-line cap left.obj
