# Obj file C:\Users\Kyle\Desktop\ORGANIZE 4\VR WIDGETS\VR SLIDERS\slider-line \
#    unactive.obj generated by Autodesk OpenModel V2013 
# Mon Oct 27 12:29:17 2014
# The units used in this file are Centimeters 
# fromNurbs
# usemtl UNKNOWN
g Obj_fromNurbs
v 4.162469 0.1895296 0
v -4.126246 0.2657381 0
v 4.20056 0.2276338 0
v -4.164351 0.2276338 0
v -0.6947891 0.2657381 0
v -0.6947891 0.1895296 0
v -3.551932 0.2657381 0
v -3.551932 0.1895296 0
v -3.909075 0.2657381 0
v -3.909075 0.1895296 0
v -4.087646 0.2657381 0
v -4.087646 0.1895296 0
v -4.160861 0.2435598 0
v -4.087646 0.2435637 0
v -4.151294 0.1989213 0
v -4.087646 0.1989208 0
v -4.132288 0.1900119 0
v -4.132289 0.1989208 0
v -4.132289 0.2435637 0
v -2.123361 0.2657381 0
v -2.123361 0.1895296 0
v 2.162354 0.2657381 0
v 2.162354 0.1895296 0
v 0.7337824 0.2657381 0
v 0.7337824 0.1895296 0
v 3.590925 0.2657381 0
v 3.590925 0.1895296 0
v 3.948068 0.2657381 0
v 3.948068 0.1895296 0
v 4.12664 0.2657381 0
v 4.12664 0.1895296 0
v 4.197075 0.2435599 0
v 4.12664 0.2435637 0
g
vn 0 0 1
vn 0 0 1
vn 0 0 1
vn 0 0 1
vn 0 0 1
vn 0 0 1
vn 0 0 1
vn 0 0 1
vn 0 0 1
vn 0 0 1
vn 0 0 1
vn 0 0 1
vn 0 0 1
vn 0 0 1
vn 0 0 1
vn 0 0 1
vn 0 0 1
vn 0 0 1
vn 0 0 1
vn 0 0 1
vn 0 0 1
vn 0 0 1
vn 0 0 1
vn 0 0 1
vn 0 0 1
vn 0 0 1
vn 0 0 1
vn 0 0 1
vn 0 0 1
vn 0 0 1
vn 0 0 1
vn 0 0 1
vn 0 0 1
vt 0.9142972 0.5749537
vt 0.08542568 0.5825746
vt 0.9181063 0.5787641
vt 0.08161525 0.5787641
vt 0.4285714 0.5825746
vt 0.4285714 0.5749537
vt 0.1428571 0.5825746
vt 0.1428571 0.5749537
vt 0.1071429 0.5825746
vt 0.1071429 0.5749537
vt 0.08928572 0.5825746
vt 0.08928572 0.5749537
vt 0.08196334 0.5803571
vt 0.08928572 0.5803571
vt 0.0829209 0.5758929
vt 0.08928572 0.5758929
vt 0.08482143 0.5750014
vt 0.08482143 0.5758929
vt 0.08482143 0.5803571
vt 0.2857143 0.5825746
vt 0.2857143 0.5749537
vt 0.7142857 0.5825746
vt 0.7142857 0.5749537
vt 0.5714286 0.5825746
vt 0.5714286 0.5749537
vt 0.8571429 0.5825746
vt 0.8571429 0.5749537
vt 0.8928571 0.5825746
vt 0.8928571 0.5749537
vt 0.9107143 0.5825746
vt 0.9107143 0.5749537
vt 0.9177587 0.5803571
vt 0.9107143 0.5803571
s 1
f 32/32/32 30/30/30 33/33/33
f 21/21/21 6/6/6 5/5/5
f 10/10/10 8/8/8 7/7/7
f 9/9/9 11/11/11 14/14/14
f 2/2/2 13/13/13 19/19/19
f 18/18/18 16/16/16 14/14/14
f 17/17/17 12/12/12 16/16/16
f 15/15/15 17/17/17 18/18/18
f 15/15/15 18/18/18 19/19/19
f 8/8/8 21/21/21 20/20/20
f 25/25/25 23/23/23 22/22/22
f 6/6/6 25/25/25 24/24/24
f 23/23/23 27/27/27 26/26/26
f 27/27/27 29/29/29 28/28/28
f 28/28/28 29/29/29 31/31/31
f 3/3/3 32/32/32 33/33/33
f 5/5/5 20/20/20 21/21/21
f 7/7/7 9/9/9 10/10/10
f 16/16/16 12/12/12 10/10/10
f 14/14/14 16/16/16 9/9/9
f 10/10/10 9/9/9 16/16/16
f 14/14/14 11/11/11 2/2/2
f 2/2/2 19/19/19 14/14/14
f 14/14/14 19/19/19 18/18/18
f 16/16/16 18/18/18 17/17/17
f 19/19/19 13/13/13 4/4/4
f 4/4/4 15/15/15 19/19/19
f 20/20/20 7/7/7 8/8/8
f 22/22/22 24/24/24 25/25/25
f 24/24/24 5/5/5 6/6/6
f 26/26/26 22/22/22 23/23/23
f 28/28/28 26/26/26 27/27/27
f 33/33/33 30/30/30 28/28/28
f 28/28/28 31/31/31 33/33/33
f 33/33/33 31/31/31 1/1/1
f 33/33/33 1/1/1 3/3/3
s off
# End of Obj file C:\Users\Kyle\Desktop\ORGANIZE 4\VR WIDGETS\VR \
#    SLIDERS\slider-line unactive.obj
