# Obj file C:\Users\Kyle\Desktop\ORGANIZE 4\VR WIDGETS\VR SLIDERS\slider-line \
#    cap right.obj generated by Autodesk OpenModel V2013 
# Mon Oct 27 12:28:42 2014
# The units used in this file are Centimeters 
# fromNurbs
# usemtl UNKNOWN
g Obj_fromNurbs
v -3.897635 0.1133211 0.1
v -3.897635 0.3419334 0.1
v -3.783335 0.227618 0.1
v -3.809974 0.3009778 0.1
v -3.897635 0.3009765 0.1
v -3.852907 0.1224047 0.1
v -3.897635 0.1224051 0.1
v -3.78444 0.2116914 0.1
v -3.897635 0.2116908 0.1
v -3.84695 0.3009765 0.1
v -3.84695 0.2116908 0.1
v -3.846948 0.1251442 0.1
g
vn 0 0 1
vn 0 0 1
vn 0 0 1
vn 0 0 1
vn 0 0 1
vn 0 0 1
vn 0 0 1
vn 0 0 1
vn 0 0 1
vn 0 0 1
vn 0 0 1
vn 0 0 1
vt 0.08542568 0.5901941
vt 0.08542568 0.5673329
vt 0.07399572 0.5787644
vt 0.07665972 0.5714286
vt 0.08542568 0.5714286
vt 0.08095292 0.5892857
vt 0.08542568 0.5892857
vt 0.07410583 0.5803571
vt 0.08542568 0.5803571
vt 0.08035714 0.5714286
vt 0.08035714 0.5803571
vt 0.08035714 0.5890115
s 1
f 1/1/1 6/6/6 7/7/7
f 2/2/2 5/5/5 10/10/10
f 11/11/11 9/9/9 7/7/7
f 10/10/10 5/5/5 9/9/9
f 4/4/4 10/10/10 11/11/11
f 12/12/12 8/8/8 11/11/11
f 10/10/10 4/4/4 2/2/2
f 6/6/6 12/12/12 11/11/11
f 11/11/11 7/7/7 6/6/6
f 9/9/9 11/11/11 10/10/10
f 11/11/11 8/8/8 3/3/3
f 3/3/3 4/4/4 11/11/11
s off
# End of Obj file C:\Users\Kyle\Desktop\ORGANIZE 4\VR WIDGETS\VR \
#    SLIDERS\slider-line cap right.obj
